<?xml version="1.0" encoding="UTF-8"?>
<!-- Generated by Pixelmator Pro 3.1.1 -->
<svg width="1855" height="300" viewBox="0 0 1855 300" xmlns="http://www.w3.org/2000/svg" xmlns:xlink="http://www.w3.org/1999/xlink">
    <text id="CodeSilica" xml:space="preserve" x="364" y="253" font-family="Helvetica Neue" font-size="308" fill="#1e293b">CodeSilica</text>
    <g id="Logo">
        <path id="Ellipse3" fill="#6366f1" fill-rule="evenodd" stroke="none" d="M 237.378632 215.048553 C 237.378632 168.131149 199.344574 130.097092 152.427185 130.097092 C 105.509789 130.097092 67.475731 168.131149 67.475731 215.048553 C 67.475731 261.965942 105.509789 300 152.427185 300 C 199.344574 300 237.378632 261.965942 237.378632 215.048553 Z"/>
        <path id="Ellipse2" fill="#6366f1" fill-rule="evenodd" stroke="none" d="M 300 84.951462 C 300 38.034058 261.965942 0 215.048538 0 C 168.131149 0 130.097092 38.034058 130.097092 84.951462 C 130.097092 131.868851 168.131149 169.902908 215.048538 169.902908 C 261.965942 169.902908 300 131.868851 300 84.951462 Z"/>
        <path id="Ellipse1" fill="#6366f1" fill-rule="evenodd" stroke="none" d="M 169.902908 84.951462 C 169.902908 38.034058 131.868851 0 84.951454 0 C 38.034061 0 0 38.034058 0 84.951462 C 0 131.868851 38.034061 169.902908 84.951454 169.902908 C 131.868851 169.902908 169.902908 131.868851 169.902908 84.951462 Z"/>
    </g>
</svg>
