<?xml version="1.0" encoding="UTF-8"?>
<!-- Generated by Pixelmator Pro 3.1.1 -->
<svg width="600" height="600" viewBox="0 0 600 600" xmlns="http://www.w3.org/2000/svg" xmlns:xlink="http://www.w3.org/1999/xlink">
    <g id="Logo">
        <path id="Ellipse3" fill="#6366f1" fill-rule="evenodd" stroke="none" d="M 474.757263 430.097107 C 474.757263 336.262299 398.689148 260.194183 304.85437 260.194183 C 211.019577 260.194183 134.951462 336.262299 134.951462 430.097107 C 134.951462 523.931885 211.019577 600 304.85437 600 C 398.689148 600 474.757263 523.931885 474.757263 430.097107 Z"/>
        <path id="Ellipse2" fill="#6366f1" fill-rule="evenodd" stroke="none" d="M 600 169.902924 C 600 76.068115 523.931885 0 430.097076 0 C 336.262299 0 260.194183 76.068115 260.194183 169.902924 C 260.194183 263.737701 336.262299 339.805817 430.097076 339.805817 C 523.931885 339.805817 600 263.737701 600 169.902924 Z"/>
        <path id="Ellipse1" fill="#6366f1" fill-rule="evenodd" stroke="none" d="M 339.805817 169.902924 C 339.805817 76.068115 263.737701 0 169.902908 0 C 76.068123 0 -0 76.068115 -0 169.902924 C -0 263.737701 76.068123 339.805817 169.902908 339.805817 C 263.737701 339.805817 339.805817 263.737701 339.805817 169.902924 Z"/>
    </g>
</svg>
